# xmcd
#
# Track frame offsets: 
#        182
#        15820
#        30407
#        44545
#        59520
#        71407
#        82457
#        93982
#        107357
#        122545
#        137045
#        146220
#        157245
#        174495
#        187982
#        199932
#        217420
#        230857
#        245932
#
# Disc length: 3451 seconds
#
# Revision: 3
# Processed by: cddbd v1.5.2PL0 Copyright (c) Steve Scherf et al.
# Submitted via: ExactAudioCopy v1.0b4
#
DISCID=200d7913
DTITLE=Various Artist - Greatest Country Collection CD 1
DYEAR=1995
DGENRE=Country
TTITLE0=The Judds - Why Not Me
TTITLE1=The Bellamy Brothers - Let Your Love Flown
TTITLE2=John Denver - Annie's Song
TTITLE3=Anne Murray - Both Sides Now
TTITLE4=Telly Savalas - Some Broken Hearts Never Mend
TTITLE5=Roger Miller - King Of The Road
TTITLE6=Freddy Fender - Before The Next Teardrop Falls
TTITLE7=Pat Boone - Jambalaya
TTITLE8=Grant and Forsyth - Somewhere Between
TTITLE9=Glen Campbell - Rhinestone Cowboy
TTITLE10=Frankie Laine - Rawhide
TTITLE11=Billie Jo Spears - Here You Come Again
TTITLE12=Piet Veerman - Blue Bayou
TTITLE13=B.J.Thomas - I Just Can't Help Believin'
TTITLE14=Skeeter Davis - The End Of The World
TTITLE15=Saskia and Serge - Together Again
TTITLE16=Lynn Anderson - Rose Garden
TTITLE17=Arthur Ebeling - Maria
TTITLE18=Kenny Rogers - Ruby Don't Take Your Love To Town
EXTD=
EXTT0=
EXTT1=
EXTT2=
EXTT3=
EXTT4=
EXTT5=
EXTT6=
EXTT7=
EXTT8=
EXTT9=
EXTT10=
EXTT11=
EXTT12=
EXTT13=
EXTT14=
EXTT15=
EXTT16=
EXTT17=
EXTT18=
PLAYORDER=
